<?xml version="1.0" encoding="UTF-8"?><svg id="Layer_1" xmlns="http://www.w3.org/2000/svg" viewBox="0 0 43.89 43.89"><defs><style>.cls-1{fill:#fff;}.cls-2{fill:#9fd2af;}.cls-3{fill:#b7ddc2;}</style></defs><circle class="cls-3" cx="21.95" cy="21.95" r="21.95"/><path class="cls-2" d="m37.46,6.43c8.57,8.57,8.57,22.47,0,31.04-8.57,8.57-22.47,8.57-31.04,0"/><path class="cls-1" d="m22.14,8.59c2.86,0,5.18,2.86,5.18,5.18v7.6c0,2.86-2.32,5.18-5.18,5.18s-5.18-2.86-5.18-5.18v-7.6c0-2.86,2.32-5.18,5.18-5.18Z"/><path class="cls-1" d="m31.02,21.12c0-.23-.08-.46-.25-.62-.16-.17-.38-.26-.62-.26s-.46.09-.62.26c-.16.17-.25.39-.24.62,0,3.94-3.21,7.15-7.15,7.15-3.94,0-7.15-3.21-7.15-7.15,0-.23-.08-.46-.24-.62-.16-.17-.39-.26-.62-.26s-.46.09-.62.26c-.16.17-.25.39-.25.62,0,4.6,3.52,8.4,8.01,8.83v3.59h-3.45c-.47.01-.84.39-.84.86s.37.85.84.86h8.63c.47-.01.84-.39.84-.86s-.37-.85-.84-.86h-3.45v-3.59c4.49-.44,8.01-4.23,8.01-8.83h0Z"/></svg>