<?xml version="1.0" encoding="UTF-8"?><svg id="Layer_1" xmlns="http://www.w3.org/2000/svg" viewBox="0 0 43.89 43.89"><defs><style>.cls-1{fill:#f8855c;}.cls-2{fill:#fff;}.cls-3{fill:#ec562f;}</style></defs><circle class="cls-1" cx="21.95" cy="21.95" r="21.95"/><path class="cls-3" d="m37.46,6.43c8.57,8.57,8.57,22.47,0,31.04-8.57,8.57-22.47,8.57-31.04,0"/><path class="cls-2" d="m9.45,18.97v6c0,.96.78,1.75,1.75,1.75h2.6v-9.49s-2.6,0-2.6,0c-.96,0-1.75.78-1.75,1.75h0Z"/><path class="cls-2" d="m22.54,31.7c.44,0,.79-.35.79-.79V13.02c0-.29-.16-.56-.42-.7-.26-.14-.57-.12-.81.04l-7.24,4.86v9.49l7.24,4.86c.13.09.28.13.44.13h0Z"/><path class="cls-2" d="m33.27,17.39l-3.39,3.39-3.39-3.39-1.18,1.18,3.39,3.39-3.39,3.39,1.18,1.18,3.39-3.39,3.39,3.39,1.18-1.18-3.39-3.39,3.39-3.39-1.18-1.18Z"/></svg>