<svg xmlns="http://www.w3.org/2000/svg" version="1.1" xmlns:xlink="http://www.w3.org/1999/xlink" xmlns:svgjs="http://svgjs.dev/svgjs" width="1000" height="313" viewBox="0 0 1000 313"><g transform="matrix(1,0,0,1,-0.6060606060606233,0.33869611816129463)"><svg viewBox="0 0 396 124" data-background-color="#1b4571" preserveAspectRatio="xMidYMid meet" height="313" width="1000" xmlns="http://www.w3.org/2000/svg" xmlns:xlink="http://www.w3.org/1999/xlink"><g id="tight-bounds" transform="matrix(1,0,0,1,0.2400000000000091,-0.13417993179552923)"><svg viewBox="0 0 395.52 123.26835986359109" height="123.26835986359109" width="395.52"><g><svg viewBox="0 0 395.52 123.26835986359109" height="123.26835986359109" width="395.52"><g><svg viewBox="0 0 395.52 123.26835986359109" height="123.26835986359109" width="395.52"><g id="textblocktransform"><svg viewBox="0 0 395.52 123.26835986359109" height="123.26835986359109" width="395.52" id="textblock"><g><rect width="395.52" height="95.10817508228868" fill="none" stroke-width="8.962371322224001" stroke="#000000" data-fill-palette-color="none" data-stroke-palette-color="tertiary"></rect><rect width="395.52" height="29.16018478130241" y="95.10817508228868" fill="#000000" data-fill-palette-color="tertiary"></rect></g><g><svg viewBox="0 0 395.52 94.10817508228868" height="94.10817508228868" width="395.52"><g transform="matrix(1,0,0,1,23.461705032,23.461705031999998)"><svg width="348.596589936" viewBox="-0.2 -33.3 250.42999999999998 33.9" height="47.18476501828869" data-palette-color="#ffffff"><path d="M15.4 0L9.6 0 9.6-12.15-0.2-32.7 6-32.7 9.55-24.35Q10.25-22.5 10.95-20.78 11.65-19.05 12.45-17.15L12.45-17.15 12.65-17.15Q13.45-19.05 14.2-20.78 14.95-22.5 15.65-24.35L15.65-24.35 19.2-32.7 25.25-32.7 15.4-12.15 15.4 0ZM41.1 0.6L41.1 0.6Q37.9 0.6 35.25-0.58 32.6-1.75 30.7-3.98 28.8-6.2 27.75-9.35 26.7-12.5 26.7-16.5L26.7-16.5Q26.7-20.45 27.75-23.58 28.8-26.7 30.7-28.85 32.6-31 35.25-32.15 37.9-33.3 41.1-33.3L41.1-33.3Q44.3-33.3 46.95-32.15 49.6-31 51.52-28.85 53.45-26.7 54.5-23.58 55.55-20.45 55.55-16.5L55.55-16.5Q55.55-12.5 54.5-9.35 53.45-6.2 51.52-3.98 49.6-1.75 46.95-0.58 44.3 0.6 41.1 0.6ZM41.1-4.45L41.1-4.45Q43.05-4.45 44.6-5.3 46.15-6.15 47.25-7.73 48.35-9.3 48.95-11.53 49.55-13.75 49.55-16.5L49.55-16.5Q49.55-22 47.27-25.13 45-28.25 41.1-28.25L41.1-28.25Q37.2-28.25 34.92-25.13 32.65-22 32.65-16.5L32.65-16.5Q32.65-13.75 33.25-11.53 33.85-9.3 34.95-7.73 36.05-6.15 37.6-5.3 39.15-4.45 41.1-4.45ZM74.35 0.6L74.35 0.6Q71.5 0.6 69.22-0.23 66.95-1.05 65.32-2.85 63.7-4.65 62.82-7.48 61.95-10.3 61.95-14.35L61.95-14.35 61.95-32.7 67.75-32.7 67.75-13.9Q67.75-11.25 68.22-9.43 68.7-7.6 69.57-6.5 70.45-5.4 71.65-4.93 72.85-4.45 74.35-4.45L74.35-4.45Q75.85-4.45 77.1-4.93 78.35-5.4 79.25-6.5 80.15-7.6 80.65-9.43 81.15-11.25 81.15-13.9L81.15-13.9 81.15-32.7 86.7-32.7 86.7-14.35Q86.7-10.3 85.85-7.48 85-4.65 83.37-2.85 81.75-1.05 79.47-0.23 77.2 0.6 74.35 0.6ZM100.64 0L94.84 0 94.84-32.7 105.89-32.7Q108.44-32.7 110.64-32.2 112.84-31.7 114.44-30.58 116.04-29.45 116.97-27.6 117.89-25.75 117.89-23L117.89-23Q117.89-19.25 116.12-16.95 114.34-14.65 111.39-13.65L111.39-13.65 119.19 0 112.69 0 105.64-12.8 100.64-12.8 100.64 0ZM100.64-28.05L100.64-17.4 105.29-17.4Q108.64-17.4 110.42-18.8 112.19-20.2 112.19-23L112.19-23Q112.19-25.85 110.42-26.95 108.64-28.05 105.29-28.05L105.29-28.05 100.64-28.05ZM153.84 0L134.44 0 134.44-32.7 140.24-32.7 140.24-4.9 153.84-4.9 153.84 0ZM170.69 0.6L170.69 0.6Q167.49 0.6 164.84-0.58 162.19-1.75 160.28-3.98 158.39-6.2 157.34-9.35 156.28-12.5 156.28-16.5L156.28-16.5Q156.28-20.45 157.34-23.58 158.39-26.7 160.28-28.85 162.19-31 164.84-32.15 167.49-33.3 170.69-33.3L170.69-33.3Q173.89-33.3 176.54-32.15 179.19-31 181.11-28.85 183.04-26.7 184.09-23.58 185.14-20.45 185.14-16.5L185.14-16.5Q185.14-12.5 184.09-9.35 183.04-6.2 181.11-3.98 179.19-1.75 176.54-0.58 173.89 0.6 170.69 0.6ZM170.69-4.45L170.69-4.45Q172.64-4.45 174.19-5.3 175.74-6.15 176.84-7.73 177.94-9.3 178.54-11.53 179.14-13.75 179.14-16.5L179.14-16.5Q179.14-22 176.86-25.13 174.59-28.25 170.69-28.25L170.69-28.25Q166.78-28.25 164.51-25.13 162.24-22 162.24-16.5L162.24-16.5Q162.24-13.75 162.84-11.53 163.44-9.3 164.53-7.73 165.64-6.15 167.19-5.3 168.74-4.45 170.69-4.45ZM205.38 0.6L205.38 0.6Q202.08 0.6 199.26-0.5 196.43-1.6 194.36-3.75 192.28-5.9 191.13-9.05 189.98-12.2 189.98-16.25L189.98-16.25Q189.98-20.25 191.18-23.43 192.38-26.6 194.46-28.8 196.53-31 199.36-32.15 202.18-33.3 205.43-33.3L205.43-33.3Q208.93-33.3 211.36-32.02 213.78-30.75 215.33-29.15L215.33-29.15 212.23-25.4Q210.98-26.6 209.46-27.43 207.93-28.25 205.63-28.25L205.63-28.25Q203.43-28.25 201.66-27.43 199.88-26.6 198.61-25.08 197.33-23.55 196.63-21.35 195.93-19.15 195.93-16.4L195.93-16.4Q195.93-10.8 198.46-7.63 200.98-4.45 205.93-4.45L205.93-4.45Q207.33-4.45 208.58-4.83 209.83-5.2 210.63-5.9L210.63-5.9 210.63-12.95 204.43-12.95 204.43-17.7 215.83-17.7 215.83-3.3Q214.18-1.65 211.46-0.53 208.73 0.6 205.38 0.6ZM235.78 0.6L235.78 0.6Q232.58 0.6 229.93-0.58 227.28-1.75 225.38-3.98 223.48-6.2 222.43-9.35 221.38-12.5 221.38-16.5L221.38-16.5Q221.38-20.45 222.43-23.58 223.48-26.7 225.38-28.85 227.28-31 229.93-32.15 232.58-33.3 235.78-33.3L235.78-33.3Q238.98-33.3 241.63-32.15 244.28-31 246.21-28.85 248.13-26.7 249.18-23.58 250.23-20.45 250.23-16.5L250.23-16.5Q250.23-12.5 249.18-9.35 248.13-6.2 246.21-3.98 244.28-1.75 241.63-0.58 238.98 0.6 235.78 0.6ZM235.78-4.45L235.78-4.45Q237.73-4.45 239.28-5.3 240.83-6.15 241.93-7.73 243.03-9.3 243.63-11.53 244.23-13.75 244.23-16.5L244.23-16.5Q244.23-22 241.96-25.13 239.68-28.25 235.78-28.25L235.78-28.25Q231.88-28.25 229.61-25.13 227.33-22 227.33-16.5L227.33-16.5Q227.33-13.75 227.93-11.53 228.53-9.3 229.63-7.73 230.73-6.15 232.28-5.3 233.83-4.45 235.78-4.45Z" opacity="1" transform="matrix(1,0,0,1,0,0)" fill="#000000" class="wordmark-text-0" data-fill-palette-color="primary" id="text-0"></path></svg></g></svg></g><g transform="matrix(1,0,0,1,97.6593705920308,94.10817508228868)"><svg viewBox="0 0 200.2012588159384 29.160184781302405" height="29.160184781302405" width="200.2012588159384"><g transform="matrix(1,0,0,1,20,3.2)"><svg width="160.2012588159384" viewBox="4.55 -37.85 336.77 47.85" height="22.760184781302407" data-palette-color="#1b4571"><path d="M37.7-26.75Q42.7-26.75 45.63-23.85 48.55-20.95 48.55-15.25L48.55-15.25 48.55 0 43.75 0 43.75-14.7Q43.75-18.55 41.98-20.5 40.2-22.45 36.9-22.45L36.9-22.45Q33.25-22.45 31.1-20.18 28.95-17.9 28.95-13.65L28.95-13.65 28.95 0 24.15 0 24.15-14.7Q24.15-18.55 22.38-20.5 20.6-22.45 17.3-22.45L17.3-22.45Q13.65-22.45 11.5-20.18 9.35-17.9 9.35-13.65L9.35-13.65 9.35 0 4.55 0 4.55-26.5 9.15-26.5 9.15-22.55Q10.6-24.6 12.95-25.68 15.3-26.75 18.3-26.75L18.3-26.75Q21.4-26.75 23.8-25.5 26.2-24.25 27.5-21.85L27.5-21.85Q29-24.15 31.68-25.45 34.35-26.75 37.7-26.75L37.7-26.75ZM67.05-26.75Q72.55-26.75 75.47-24.05 78.4-21.35 78.4-16L78.4-16 78.4 0 73.85 0 73.85-3.5Q72.65-1.65 70.42-0.68 68.2 0.3 65.15 0.3L65.15 0.3Q60.7 0.3 58.02-1.85 55.35-4 55.35-7.5L55.35-7.5Q55.35-11 57.9-13.13 60.45-15.25 66-15.25L66-15.25 73.6-15.25 73.6-16.2Q73.6-19.3 71.8-20.95 70-22.6 66.5-22.6L66.5-22.6Q64.15-22.6 61.9-21.83 59.65-21.05 58.1-19.75L58.1-19.75 56.1-23.35Q58.15-25 61-25.88 63.85-26.75 67.05-26.75L67.05-26.75ZM65.95-3.4Q68.7-3.4 70.7-4.63 72.7-5.85 73.6-8.1L73.6-8.1 73.6-11.8 66.2-11.8Q60.1-11.8 60.1-7.7L60.1-7.7Q60.1-5.7 61.65-4.55 63.2-3.4 65.95-3.4L65.95-3.4ZM107.55 0L97.59-12.35 92.09-7.25 92.09 0 87.3 0 87.3-37.1 92.09-37.1 92.09-13.3 106.55-26.5 112.34-26.5 101.2-15.55 113.45 0 107.55 0ZM140.94-13.1Q140.94-12.55 140.84-11.65L140.84-11.65 119.34-11.65Q119.79-8.15 122.42-6.03 125.04-3.9 128.94-3.9L128.94-3.9Q133.69-3.9 136.59-7.1L136.59-7.1 139.24-4Q137.44-1.9 134.77-0.8 132.09 0.3 128.79 0.3L128.79 0.3Q124.59 0.3 121.34-1.43 118.09-3.15 116.32-6.25 114.54-9.35 114.54-13.25L114.54-13.25Q114.54-17.1 116.27-20.2 117.99-23.3 121.02-25.03 124.04-26.75 127.84-26.75L127.84-26.75Q131.64-26.75 134.62-25.03 137.59-23.3 139.27-20.2 140.94-17.1 140.94-13.1L140.94-13.1ZM127.84-22.7Q124.39-22.7 122.07-20.6 119.74-18.5 119.34-15.1L119.34-15.1 136.34-15.1Q135.94-18.45 133.62-20.58 131.29-22.7 127.84-22.7L127.84-22.7ZM161.04 0L161.04-26.5 165.84-26.5 165.84 0 161.04 0ZM163.44-31.6Q162.04-31.6 161.11-32.5 160.19-33.4 160.19-34.7L160.19-34.7Q160.19-36 161.11-36.93 162.04-37.85 163.44-37.85L163.44-37.85Q164.84-37.85 165.76-36.98 166.69-36.1 166.69-34.8L166.69-34.8Q166.69-33.45 165.76-32.52 164.84-31.6 163.44-31.6L163.44-31.6ZM188.38-5L189.88-1.55Q188.84-0.65 187.28-0.18 185.74 0.3 184.09 0.3L184.09 0.3Q180.09 0.3 177.88-1.85 175.69-4 175.69-8L175.69-8 175.69-22.55 171.19-22.55 171.19-26.5 175.69-26.5 175.69-32.3 180.49-32.3 180.49-26.5 188.09-26.5 188.09-22.55 180.49-22.55 180.49-8.2Q180.49-6.05 181.56-4.9 182.63-3.75 184.63-3.75L184.63-3.75Q186.84-3.75 188.38-5L188.38-5ZM227.88-26.5L232.58-26.5 219.73 2.65Q218.03 6.7 215.75 8.35 213.48 10 210.28 10L210.28 10Q208.33 10 206.5 9.38 204.68 8.75 203.48 7.55L203.48 7.55 205.53 3.95Q207.58 5.9 210.28 5.9L210.28 5.9Q212.03 5.9 213.2 4.98 214.38 4.05 215.33 1.8L215.33 1.8 216.18-0.05 204.48-26.5 209.48-26.5 218.73-5.3 227.88-26.5ZM247.68 0.3Q243.73 0.3 240.58-1.45 237.43-3.2 235.65-6.28 233.88-9.35 233.88-13.25L233.88-13.25Q233.88-17.15 235.65-20.23 237.43-23.3 240.58-25.03 243.73-26.75 247.68-26.75L247.68-26.75Q251.63-26.75 254.75-25.03 257.88-23.3 259.65-20.23 261.43-17.15 261.43-13.25L261.43-13.25Q261.43-9.35 259.65-6.28 257.88-3.2 254.75-1.45 251.63 0.3 247.68 0.3L247.68 0.3ZM247.68-3.9Q250.23-3.9 252.25-5.08 254.28-6.25 255.43-8.38 256.58-10.5 256.58-13.25L256.58-13.25Q256.58-16 255.43-18.13 254.28-20.25 252.25-21.4 250.23-22.55 247.68-22.55L247.68-22.55Q245.13-22.55 243.1-21.4 241.08-20.25 239.9-18.13 238.73-16 238.73-13.25L238.73-13.25Q238.73-10.5 239.9-8.38 241.08-6.25 243.1-5.08 245.13-3.9 247.68-3.9L247.68-3.9ZM287.97-26.5L292.77-26.5 292.77 0 288.22 0 288.22-4Q286.77-1.95 284.4-0.83 282.02 0.3 279.22 0.3L279.22 0.3Q273.92 0.3 270.88-2.63 267.82-5.55 267.82-11.25L267.82-11.25 267.82-26.5 272.63-26.5 272.63-11.8Q272.63-7.95 274.47-5.98 276.32-4 279.77-4L279.77-4Q283.57-4 285.77-6.3 287.97-8.6 287.97-12.8L287.97-12.8 287.97-26.5ZM306.52-22.05Q307.77-24.35 310.22-25.55 312.67-26.75 316.17-26.75L316.17-26.75 316.17-22.1Q315.77-22.15 315.07-22.15L315.07-22.15Q311.17-22.15 308.95-19.83 306.72-17.5 306.72-13.2L306.72-13.2 306.72 0 301.92 0 301.92-26.5 306.52-26.5 306.52-22.05ZM329.87 0.3Q326.62 0.3 323.62-0.58 320.62-1.45 318.92-2.8L318.92-2.8 320.92-6.6Q322.67-5.35 325.17-4.6 327.67-3.85 330.22-3.85L330.22-3.85Q336.52-3.85 336.52-7.45L336.52-7.45Q336.52-8.65 335.67-9.35 334.82-10.05 333.55-10.38 332.27-10.7 329.92-11.1L329.92-11.1Q326.72-11.6 324.7-12.25 322.67-12.9 321.22-14.45 319.77-16 319.77-18.8L319.77-18.8Q319.77-22.4 322.77-24.58 325.77-26.75 330.82-26.75L330.82-26.75Q333.47-26.75 336.12-26.1 338.77-25.45 340.47-24.35L340.47-24.35 338.42-20.55Q335.17-22.65 330.77-22.65L330.77-22.65Q327.72-22.65 326.12-21.65 324.52-20.65 324.52-19L324.52-19Q324.52-17.7 325.42-16.95 326.32-16.2 327.65-15.85 328.97-15.5 331.37-15.05L331.37-15.05Q334.57-14.5 336.55-13.88 338.52-13.25 339.92-11.75 341.32-10.25 341.32-7.55L341.32-7.55Q341.32-3.95 338.25-1.83 335.17 0.3 329.87 0.3L329.87 0.3Z" opacity="1" transform="matrix(1,0,0,1,0,0)" fill="#ffffff" class="slogan-text-1" data-fill-palette-color="quaternary" id="text-1"></path></svg></g></svg></g></svg></g></svg></g></svg></g><defs></defs></svg><rect width="395.52" height="123.26835986359109" fill="none" stroke="none" visibility="hidden"></rect></g></svg></g></svg>